<svg height="477.60001pt" viewBox="0 0 477.60001 477.60001" width="477.60001pt" xmlns="http://www.w3.org/2000/svg"><path d="m477.601562 238.800781c0 131.886719-106.914062 238.800781-238.800781 238.800781s-238.800781-106.914062-238.800781-238.800781 106.914062-238.800781 238.800781-238.800781 238.800781 106.914062 238.800781 238.800781zm0 0" fill="#382b73"/><path d="m445.398438 238.800781c0 114.101563-92.496094 206.597657-206.597657 206.597657-114.101562 0-206.597656-92.496094-206.597656-206.597657 0-114.101562 92.496094-206.597656 206.597656-206.597656 114.101563 0 206.597657 92.496094 206.597657 206.597656zm0 0" fill="#473080"/><path d="m340.277344 338.851562-38.660156-90.015624c6.929687-3.4375 13.160156-7.457032 18.40625-12.027344.277343-.242188.519531-.503906.734374-.78125.085938-.109375.144532-.226563.21875-.335938.117188-.175781.234376-.347656.328126-.535156.082031-.160156.140624-.328125.207031-.492188.054687-.144531.117187-.285156.160156-.433593.0625-.203125.101563-.414063.136719-.625.019531-.109375.042968-.214844.054687-.320313.027344-.25.03125-.496094.027344-.746094 0-.070312 0-.140624-.003906-.207031-.015625-.28125-.054688-.554687-.113281-.828125-.007813-.039062-.015626-.074218-.027344-.109375-.066406-.296875-.160156-.585937-.28125-.871093-.003906-.015626-.011719-.027344-.015625-.039063-.128907-.296875-.277344-.585937-.464844-.863281-.132813-.207032-.261719-.414063-.429687-.605469-2.003907-2.304687-5.496094-2.539063-7.792969-.539063-4.421875 3.851563-9.664063 7.265626-15.503907 10.21875l-18.605468-43.316406c.878906-1.558594 1.683594-3.175781 2.378906-4.871094.003906-.003906.003906-.011718.007812-.015624.328126-.800782.625-1.609376.90625-2.421876.085938-.246093.164063-.496093.242188-.742187.191406-.585937.371094-1.175781.535156-1.765625.074219-.261719.148438-.527344.214844-.792969.164062-.625.308594-1.25.441406-1.878906.046875-.199219.09375-.402344.132813-.605469.335937-1.691406.566406-3.390625.703125-5.085937.011718-.164063.019531-.328125.03125-.492188.046875-.699219.078125-1.402343.09375-2.101562.003906-.171875.003906-.34375.007812-.515625.003906-.773438-.007812-1.546875-.042968-2.316406-.003907-.0625-.003907-.125-.007813-.1875-.820313-16.484376-10.917969-31.816407-27.1875-38.519532-.851563-.351562-1.710937-.664062-2.570313-.957031v-36.921875c0-7.570312-6.136718-13.703125-13.699218-13.703125h-.976563c-.578125 0-1.148437.046875-1.707031.117187-.136719.019532-.273438.042969-.410156.0625-.472656.074219-.933594.171876-1.390625.289063-.078125.023437-.160157.039063-.238281.0625-1.140626.324219-2.214844.789063-3.210938 1.378906 0 0 0 0-.003906 0-4.03125 2.386719-6.746094 6.765625-6.746094 11.792969v36.921875c-11.578125 3.953125-21.464844 12.675781-26.492188 24.878906-5.347656 12.980469-4.019531 27.039063 2.378907 38.382813l-18.605469 43.320312c-5.839844-2.953125-11.082031-6.367187-15.503906-10.21875-2.296875-2.003906-5.792969-1.765625-7.796875.539063-.164063.1875-.292969.398437-.425781.605469-.183594.277343-.335938.566406-.464844.863281-.007813.011719-.011719.027343-.015625.039062-.121094.285157-.210938.574219-.28125.871094-.007813.039063-.015625.070313-.023438.105469-.058593.277344-.101562.550781-.117187.832031-.003906.066406-.003906.136719-.003906.203125-.003907.25 0 .5.03125.746094.011718.109375.03125.214844.050781.320312.039062.210938.078125.421875.140625.628906.042968.148438.105468.289063.160156.429688.066406.167969.125.332031.203125.492188.09375.1875.214844.359374.328125.535156.074219.109375.136719.230468.222656.339844.214844.277343.457032.539062.734375.78125 5.246094 4.570312 11.472657 8.589843 18.40625 12.027343l-38.660156 90.015625c-1.253906 2.917969.886719 6.164063 4.0625 6.164063h-7.488281v-35.550781h-7.921875 7.921875v-18.554688c0-8.140625-6.601563-14.738281-14.738282-14.738281-8.144531 0-14.742187 6.601562-14.742187 14.738281v18.554688h7.917969-7.917969v47.027343h7.917969-7.917969l9.542969 17.0625 3.382812 6.050781c.484375.863282 1.429688 1.195313 2.277344 1.007813.070312-.015625.136719-.042969.210938-.066406.289062-.097657.5625-.25.792968-.476563.132813-.132812.25-.289062.351563-.464844l12.921875-23.113281h-7.917969 7.917969v-4.484375h22.675781c2.441406 0 4.417969-1.980468 4.417969-4.417968v-2.570313h-.207032c1.765626 0 3.363282-1.050781 4.0625-2.675781l36.277344-84.46875c9.460938 2.320312 19.53125 3.753906 29.886719 4.164062v3.867188c0 .3125.046875.613281.09375.910156.28125 1.917969 1.421875 3.539062 3.03125 4.476562h.003906c.367188.214844.753907.386719 1.164063.519532.15625.054687.308594.105468.46875.144531.144531.035156.285156.070313.429687.09375.347657.0625.695313.105469 1.0625.105469 2.082031 0 3.914063-1.027344 5.046875-2.59375.75-1.03125 1.203125-2.285156 1.203125-3.65625v-3.867188c10.351563-.410156 20.414063-1.84375 29.867188-4.164062l36.28125 84.46875c.695312 1.625 2.292969 2.675781 4.058593 2.675781h3.238282c-.832032 0-1.589844.304687-2.1875.789063-.175782.140624-.332032.296874-.476563.46875-.511719.609374-.832031 1.382812-.832031 2.238281s.320312 1.628906.832031 2.238281c.144531.171875.300781.324219.476563.46875.597656.484375 1.351562.789062 2.1875.789062h1.566406l4.0625 20.988282c.035156.191406.101562.355468.1875.496094.175781.285156.441406.472656.734375.570312.144531.046875.296875.070312.453125.070312.152344 0 .308594-.023437.453125-.070312.441406-.140625.8125-.496094.921875-1.066406l.464844-2.40625 3.597656-18.578125h1.566406c1.929688 0 3.492188-1.566407 3.492188-3.496094s-1.5625-3.492187-3.492188-3.492187h2.148438c3.171875-.007813 5.3125-3.253907 4.0625-6.171876zm-95.496094-95.445312c-.285156-.28125-.59375-.539062-.925781-.765625-.996094-.671875-2.199219-1.066406-3.492188-1.066406-.003906 0-.003906 0-.003906 0-.363281 0-.714844.042969-1.058594.105469-.148437.027343-.289062.058593-.433593.09375-.15625.039062-.308594.089843-.460938.144531-.414062.136719-.800781.308593-1.167969.523437-1.609375.9375-2.753906 2.554688-3.035156 4.476563-.042969.300781-.089844.597656-.089844.910156v3.144531c-8.828125-.371094-17.40625-1.511718-25.480469-3.359375l14.359376-33.441406c.203124.085937.398437.179687.601562.261719 1.59375.65625 3.203125 1.203125 4.824219 1.660156 1.078125.304688 2.160156.570312 3.246093.789062.273438.054688.550782.109376.824219.160157 1.234375.226562 2.472657.398437 3.707031.515625 1.519532.144531 3.039063.214844 4.546876.199218 5.882812-.054687 11.644531-1.304687 16.96875-3.585937l14.359374 33.4375c-8.066406 1.847656-16.636718 2.992187-25.457031 3.359375v-3.140625c0-1.726563-.703125-3.292969-1.832031-4.421875zm0 0" fill="#382b73"/><path d="m280.890625 142.683594c-9.421875-22.398438-35.21875-32.914063-57.617187-23.492188-22.398438 9.425782-32.914063 35.222656-23.492188 57.621094 9.425781 22.394531 35.21875 32.914062 57.617188 23.488281 22.398437-9.421875 32.917968-35.21875 23.492187-57.617187zm0 0" fill="#ef5a9d"/><path d="m281.03125 167.109375c-9.253906 22.46875-34.972656 33.179687-57.441406 23.925781-15.402344-6.34375-25.273438-20.425781-26.980469-35.894531-2 18.921875 8.496094 37.675781 26.980469 45.289063 22.46875 9.253906 48.1875-1.457032 57.441406-23.925782 2.910156-7.066406 3.839844-14.453125 3.058594-21.546875-.433594 4.078125-1.414063 8.167969-3.058594 12.152344zm0 0" fill="#e43d91"/><path d="m262.585938 159.746094c0 12.28125-9.957032 22.234375-22.234376 22.234375-12.28125 0-22.238281-9.953125-22.238281-22.234375s9.957031-22.234375 22.238281-22.234375c12.277344 0 22.234376 9.953125 22.234376 22.234375zm0 0" fill="#fff335"/><path d="m260.90625 159.003906c-4.675781 11.355469-17.671875 16.769532-29.027344 12.089844-7.042968-2.902344-11.792968-9.003906-13.273437-15.933594-2.179688 10.292969 3.199219 20.992188 13.273437 25.144532 11.355469 4.675781 24.351563-.738282 29.027344-12.089844 1.777344-4.3125 2.089844-8.855469 1.1875-13.097656-.277344 1.308593-.660156 2.609374-1.1875 3.886718zm0 0" fill="#f7cb15"/><path d="m254.539062 118.152344v-36.964844c0-7.570312-6.136718-13.703125-13.699218-13.703125h-.976563c-7.566406 0-13.703125 6.136719-13.703125 13.703125v36.957031c8.9375-3.054687 18.867188-3.242187 28.378906.007813zm0 0" fill="#f7cb15"/><path d="m240.835938 67.480469h-.972657c-2.542969 0-4.917969.707031-6.957031 1.914062 5.089844 2.726563 8.554688 8.09375 8.554688 14.269531v32.167969c4.359374.113281 8.761718.84375 13.078124 2.320313v-36.964844c0-7.570312-6.136718-13.707031-13.703124-13.707031zm0 0" fill="#fff335"/><path d="m240.351562 248.164062c-31.667968 0-61.453124-9.476562-79.675781-25.355468-2.300781-2.003906-2.539062-5.496094-.535156-7.796875s5.496094-2.542969 7.796875-.539063c16.265625 14.175782 43.335938 22.636719 72.414062 22.636719 29.074219 0 56.144532-8.460937 72.414063-22.636719 2.296875-2.003906 5.789063-1.765625 7.792969.539063 2.007812 2.300781 1.765625 5.789062-.535156 7.796875-18.222657 15.875-48.007813 25.355468-79.671876 25.355468zm0 0" fill="#1caee4"/><path d="m320.023438 216.753906c-18.222657 15.875-48.007813 25.355469-79.671876 25.355469-31.667968 0-61.453124-9.480469-79.675781-25.355469-.386719-.339844-.695312-.730468-.964843-1.140625-1.5 2.273438-1.144532 5.355469.964843 7.191407 18.222657 15.878906 48.007813 25.355468 79.675781 25.355468 31.664063 0 61.449219-9.476562 79.671876-25.355468 2.109374-1.835938 2.464843-4.917969.964843-7.191407-.269531.410157-.578125.800781-.964843 1.140625zm0 0" fill="#009add"/><path d="m240.363281 258.152344c-3.453125 0-6.253906-2.796875-6.253906-6.25v-18.078125c0-3.449219 2.796875-6.25 6.253906-6.25 3.449219 0 6.25 2.796875 6.25 6.25v18.078125c0 3.453125-2.800781 6.25-6.25 6.25zm0 0" fill="#27c1e6"/><path d="m240.363281 227.574219c-1.144531 0-2.203125.328125-3.128906.867187 1.863281 1.082032 3.128906 3.078125 3.128906 5.382813v18.078125c0 2.308594-1.265625 4.300781-3.128906 5.382812.921875.535156 1.984375.867188 3.128906.867188 3.449219 0 6.25-2.796875 6.25-6.25v-18.078125c0-3.449219-2.800781-6.25-6.25-6.25zm0 0" fill="#1caee4"/><path d="m234.109375 233.824219v2.679687h12.503906v-2.679687c0-.308594-.050781-.609375-.09375-.910157h-12.320312c-.042969.300782-.089844.601563-.089844.910157zm0 0" fill="#009add"/><path d="m234.109375 249.226562v2.675782c0 .3125.046875.609375.09375.910156h12.320313c.042968-.300781.089843-.597656.089843-.910156v-2.675782zm0 0" fill="#009add"/><path d="m234.109375 241.070312h12.503906v3.585938h-12.503906zm0 0" fill="#009add"/><path d="m340.277344 324.851562-61.632813-143.5c-4.851562 8.621094-12.296875 15.09375-20.941406 18.804688l55.054687 128.183594c.699219 1.625 2.292969 2.675781 4.0625 2.675781h19.394532c3.171875 0 5.3125-3.246094 4.0625-6.164063zm0 0" fill="#fff335"/><path d="m268.128906 193.796875c-3.179687 2.59375-6.679687 4.75-10.425781 6.359375l55.054687 128.183594c.699219 1.621094 2.292969 2.675781 4.0625 2.675781h10.238282zm0 0" fill="#f7cb15"/><path d="m222.996094 200.148438c-9.199219-3.949219-16.363282-10.679688-20.9375-18.804688l-61.632813 143.503906c-1.253906 2.917969.882813 6.167969 4.058594 6.167969h19.394531c1.769532 0 3.363282-1.054687 4.0625-2.675781zm0 0" fill="#fff335"/><path d="m212.574219 193.796875c3.179687 2.59375 6.679687 4.75 10.421875 6.359375l-55.050782 128.183594c-.699218 1.621094-2.296874 2.675781-4.0625 2.675781h-10.242187zm0 0" fill="#f7cb15"/><path d="m159.667969 338.003906h-13.628907v-6.988281h18.050782v2.570313c0 2.4375-1.980469 4.417968-4.421875 4.417968zm0 0" fill="#136da0"/><path d="m107.515625 283.730469h29.480469v11.730469h-29.480469zm0 0" fill="#fede3a"/><path d="m115.664062 283.730469h13.179688v11.730469h-13.179688zm0 0" fill="#fff335"/><path d="m122.257812 262.167969c-8.144531 0-14.742187 6.601562-14.742187 14.738281v6.824219h29.480469v-6.824219c0-8.136719-6.601563-14.738281-14.738282-14.738281zm0 0" fill="#1caee4"/><path d="m122.257812 262.167969c-3.769531 0-6.824218 3.054687-6.824218 6.820312v14.742188h13.644531v-14.742188c-.003906-3.765625-3.054687-6.820312-6.820313-6.820312zm0 0" fill="#27c1e6"/><path d="m136.996094 342.488281h-29.480469l12.921875 23.113281c.792969 1.421876 2.839844 1.421876 3.632812 0zm0 0" fill="#e6e7e8"/><g fill="#ef5a9d"><path d="m122.78125 366.601562c.519531-.136718.992188-.46875 1.289062-1-.296874.53125-.769531.863282-1.289062 1zm0 0"/><path d="m121.726562 366.601562c-.34375-.089843-.667968-.265624-.9375-.535156.269532.269532.59375.445313.9375.535156zm0 0"/><path d="m107.515625 295.460938h29.480469v47.027343h-29.480469zm0 0"/></g><path d="m115.433594 295.460938h13.640625v47.027343h-13.640625zm0 0" fill="#f06ea9"/><path d="m129.074219 342.488281h-13.640625l5.980468 23.113281c.367188 1.421876 1.3125 1.421876 1.683594 0zm0 0" fill="#fff"/><path d="m116.164062 357.957031 4.273438 7.644531c.792969 1.417969 2.839844 1.417969 3.632812 0l4.277344-7.648437zm0 0" fill="#ef5a9d"/><path d="m107.515625 331.015625h49.757813v6.988281h-49.757813zm0 0" fill="#1caee4"/><path d="m107.515625 331.015625h8.148437v6.988281h-8.148437zm0 0" fill="#009add"/><path d="m129.074219 331.015625h8.152343v6.988281h-8.152343zm0 0" fill="#009add"/><path d="m142.433594 331.015625h3.238281v6.988281h-3.238281zm0 0" fill="#136da0"/><path d="m320.054688 338.003906h14.011718c1.929688 0 3.492188-1.5625 3.492188-3.492187 0-1.933594-1.5625-3.496094-3.492188-3.496094h-14.011718c-1.929688 0-3.492188 1.5625-3.492188 3.496094-.003906 1.929687 1.5625 3.492187 3.492188 3.492187zm0 0" fill="#1caee4"/><path d="m324.296875 334.511719c0-1.933594 1.566406-3.496094 3.496094-3.496094h-7.738281c-1.929688 0-3.492188 1.5625-3.492188 3.496094 0 1.929687 1.5625 3.492187 3.492188 3.492187h7.738281c-1.929688 0-3.496094-1.5625-3.496094-3.492187zm0 0" fill="#009add"/><path d="m325.683594 358.992188-4.078125-21.082032h10.914062l-4.082031 21.082032c-.292969 1.515624-2.460938 1.515624-2.753906 0zm0 0" fill="#1caee4"/><path d="m325.289062 337.910156h-3.683593l4.078125 21.082032c.292968 1.515624 2.457031 1.515624 2.753906 0l.464844-2.40625zm0 0" fill="#009add"/></svg>